<svg xmlns="http://www.w3.org/2000/svg" viewBox="0 0 128 128">
  <defs><linearGradient id="g" x1="0" y1="0" x2="1" y2="1">
    <stop offset="0" stop-color="#f7d774"/><stop offset="1" stop-color="#caa53a"/>
  </linearGradient></defs>
  <circle cx="64" cy="64" r="60" fill="none" stroke="url(#g)" stroke-width="6"/>
  <path d="M94 50c0 14-16 26-30 26S34 64 34 50c0-10 9-19 30-19 21 0 30 9 30 19z" fill="url(#g)"/>
  <path d="M68 44c3 9-4 19-12 19-8 0-12-6-13-12-1-6 4-14 14-14 7 0 10 3 11 7z" fill="#12151c"/>
  <path d="M80 51c-2 0-4-2-4-4 0-1 0-2 1-3 3-3 7-5 12-5 1 0 2 1 2 2 0 6-5 10-11 10z" fill="#12151c"/>
</svg>